<?xml version="1.0" standalone="no"?>
<!DOCTYPE svg PUBLIC "-//W3C//DTD SVG 20010904//EN"
 "http://www.w3.org/TR/2001/REC-SVG-20010904/DTD/svg10.dtd">
<svg version="1.0" xmlns="http://www.w3.org/2000/svg"
 width="310.000000pt" height="310.000000pt" viewBox="0 0 310.000000 310.000000"
 preserveAspectRatio="xMidYMid meet">
<metadata>
Created by potrace 1.14, written by Peter Selinger 2001-2017
</metadata>
<g transform="translate(0.000000,310.000000) scale(0.100000,-0.100000)"
fill="#000000" stroke="none">
<path d="M821 2552 c-44 -62 -47 -165 -9 -236 70 -126 183 22 139 182 -23 83
-89 110 -130 54z"/>
<path d="M933 2194 c-28 -30 -80 -32 -116 -4 -14 11 -27 20 -29 20 -2 0 -3
-354 -3 -787 l0 -788 83 -3 82 -3 0 88 0 88 31 -55 c56 -102 125 -152 210
-154 146 -2 272 158 319 405 20 102 22 123 22 238 0 134 -5 189 -26 287 -38
177 -119 309 -221 359 -57 28 -141 24 -193 -8 -40 -26 -87 -80 -115 -132 -16
-29 -16 -27 -17 80 -1 61 -1 174 0 253 0 78 -1 142 -2 141 -2 -1 -13 -12 -25
-25z m323 -566 c45 -35 62 -59 84 -117 58 -151 59 -361 1 -511 -52 -138 -160
-183 -243 -103 -32 30 -84 130 -93 178 -39 198 -16 376 64 495 53 80 129 103
187 58z"/>
<path d="M2040 1887 c-40 -20 -63 -74 -63 -148 0 -199 160 -216 171 -19 7 113
-48 197 -108 167z"/>
<path d="M1901 1838 c-33 -32 -63 -83 -86 -147 -13 -34 -14 -31 -14 62 l-1 97
-85 0 -85 0 0 -620 0 -621 88 3 87 3 1 360 c0 304 3 372 18 437 10 43 24 84
32 92 8 8 14 19 14 24 0 6 16 24 35 41 34 30 35 32 25 76 -13 60 -14 142 -1
184 6 19 9 36 8 38 -2 1 -18 -12 -36 -29z"/>
</g>
</svg>
