<svg version="1.1" id="Layer_1" xmlns="http://www.w3.org/2000/svg" xmlns:xlink="http://www.w3.org/1999/xlink" x="0px" y="0px"
	 width="100%" viewBox="0 0 755 1636" enable-background="new 0 0 755 1636" xml:space="preserve">
<path fill="#017FE5" opacity="1.000000" stroke="none" 
	d="
M756.000000,1.999999 
	C756.000000,546.893982 756.000000,1091.787964 756.000000,1637.000000 
	C603.302551,1637.000000 450.604919,1637.000000 297.377686,1636.655762 
	C263.147858,1577.813599 229.466492,1519.304810 195.741379,1460.821045 
	C167.743011,1412.268188 139.715332,1363.732300 111.655800,1315.214844 
	C98.842842,1293.059937 85.921829,1270.967407 73.017136,1248.498291 
	C70.363403,1243.722534 67.742332,1239.295166 65.059235,1234.582764 
	C64.657028,1233.841553 64.316856,1233.385376 63.924042,1232.582031 
	C57.392044,1220.982788 50.912678,1209.730713 44.392136,1198.302246 
	C44.350960,1198.125610 44.089558,1197.874268 44.070583,1197.517578 
	C36.832138,1180.952637 29.612665,1164.744507 22.348186,1148.259521 
	C22.158960,1147.639282 22.014740,1147.295776 21.899431,1146.572998 
	C19.974199,1140.484497 18.020056,1134.775146 16.093370,1129.007812 
	C16.120827,1128.949707 16.006031,1128.892334 16.048111,1128.497070 
	C7.675460,1097.580566 2.172421,1066.626831 1.987843,1034.852783 
	C1.872909,1015.067566 1.735134,995.286011 5.066927,975.690918 
	C7.259839,962.793945 9.604202,949.922668 11.995516,936.766724 
	C12.176856,936.105713 12.243433,935.717834 12.563400,935.060181 
	C13.829199,930.531921 14.841605,926.273621 15.922205,921.753235 
	C16.012314,921.312073 16.034233,921.132874 16.344101,920.742432 
	C17.710608,917.057129 18.646271,913.530945 19.893213,910.118530 
	C24.538923,897.404541 29.286791,884.727905 34.021233,872.030762 
	C34.046127,872.024353 34.024666,871.977661 34.284500,871.848877 
	C34.679588,871.181763 34.814842,870.643372 35.019554,870.071350 
	C35.089008,870.037720 35.047131,869.889221 35.331139,869.711426 
	C38.452076,863.440918 41.289009,857.348206 44.199539,851.241455 
	C44.273136,851.227356 44.253452,851.078796 44.531837,850.903381 
	C47.186951,846.180664 49.563683,841.633423 52.010933,837.054626 
	C52.081455,837.023132 52.051586,836.871582 52.324478,836.716797 
	C53.372963,835.063599 54.148556,833.565186 55.131058,831.788696 
	C57.049019,828.654358 58.802082,825.822449 60.464935,822.938477 
	C96.288948,760.807312 132.079254,698.656799 167.926605,636.539124 
	C194.541183,590.420349 221.264893,544.364563 247.871857,498.241425 
	C280.384796,441.880341 312.799347,385.462463 345.307617,329.098694 
	C371.742401,283.265228 398.463257,237.595398 424.668243,191.631210 
	C449.375427,148.294113 480.716217,110.703163 520.123596,80.085228 
	C574.727234,37.660454 636.570557,12.541004 705.563232,3.984766 
	C722.657104,3.383965 739.328552,2.691981 756.000000,1.999999 
z"/>
<path fill="#FEFFFF" opacity="1.000000" stroke="none" 
	d="
M705.140747,3.893583 
	C636.570557,12.541004 574.727234,37.660454 520.123596,80.085228 
	C480.716217,110.703163 449.375427,148.294113 424.668243,191.631210 
	C398.463257,237.595398 371.742401,283.265228 345.307617,329.098694 
	C312.799347,385.462463 280.384796,441.880341 247.871857,498.241425 
	C221.264893,544.364563 194.541183,590.420349 167.926605,636.539124 
	C132.079254,698.656799 96.288948,760.807312 60.464935,822.938477 
	C58.802082,825.822449 57.049019,828.654358 54.795242,831.860840 
	C53.518875,833.764709 52.785236,835.318115 52.051590,836.871582 
	C52.051586,836.871582 52.081455,837.023132 51.679787,837.112183 
	C48.306156,841.507996 43.350658,844.810669 44.253452,851.078796 
	C44.253452,851.078796 44.273136,851.227356 43.870689,851.298584 
	C38.990330,856.783203 35.753883,862.761047 35.047131,869.889221 
	C35.047131,869.889221 35.089008,870.037720 34.804840,870.244507 
	C34.355331,870.960022 34.189995,871.468872 34.024666,871.977661 
	C34.024666,871.977661 34.046127,872.024353 33.705524,872.141968 
	C32.218914,873.862915 30.669088,875.313110 29.993378,877.094727 
	C26.055660,887.477600 22.153202,897.880981 18.607546,908.401672 
	C17.254530,912.416321 16.877804,916.760010 16.056152,920.953735 
	C16.034233,921.132874 16.012314,921.312073 15.596129,921.892822 
	C14.237915,926.639648 13.273969,930.984802 12.310017,935.330017 
	C12.243433,935.717834 12.176856,936.105713 11.663548,936.895447 
	C10.594010,938.238953 9.595946,939.111389 9.407681,940.133057 
	C7.878918,948.428894 6.521243,956.756104 5.072967,965.067078 
	C3.740105,972.715698 2.359545,980.356018 1.000000,988.000000 
	C1.000000,659.084656 1.000000,330.169312 1.000000,1.000000 
	C238.354172,1.000000 475.708435,1.000000 713.236572,1.229931 
	C710.653931,2.271102 707.897339,3.082342 705.140747,3.893583 
z"/>
<path fill="#FEFFFF" opacity="1.000000" stroke="none" 
	d="
M63.976692,1232.929199 
	C64.316856,1233.385376 64.657028,1233.841553 65.012199,1234.968262 
	C67.701385,1240.041504 70.375587,1244.444092 73.049789,1248.846680 
	C85.921829,1270.967407 98.842842,1293.059937 111.655800,1315.214844 
	C139.715332,1363.732300 167.743011,1412.268188 195.741379,1460.821045 
	C229.466492,1519.304810 263.147858,1577.813599 296.924072,1636.655762 
	C198.382996,1637.000000 99.765999,1637.000000 1.000000,1637.000000 
	C1.000000,1446.312500 1.000000,1255.624878 1.301073,1064.700073 
	C1.981334,1065.185547 2.568368,1065.870117 2.709360,1066.636597 
	C6.254972,1085.911987 9.709572,1105.204102 13.341953,1124.462891 
	C13.641370,1126.050415 15.090918,1127.420898 16.006046,1128.892334 
	C16.006031,1128.892334 16.120827,1128.949707 16.036963,1129.409424 
	C17.925571,1135.563477 19.898045,1141.257812 21.870518,1146.952148 
	C22.014740,1147.295776 22.158960,1147.639282 22.264629,1148.676147 
	C24.783548,1163.669434 31.280270,1176.446411 37.832489,1189.166748 
	C39.451389,1192.309692 41.979465,1194.984375 44.089569,1197.874268 
	C44.089558,1197.874268 44.350960,1198.125610 44.315132,1198.697266 
	C44.636360,1200.706909 44.732353,1202.279907 45.393833,1203.560547 
	C49.036858,1210.614136 52.587982,1217.733643 56.654491,1224.541504 
	C58.527260,1227.676758 61.501774,1230.153687 63.976692,1232.929199 
z"/>
<path fill="#C4F3FD" opacity="1.000000" stroke="none" 
	d="
M16.048126,1128.497070 
	C15.090918,1127.420898 13.641370,1126.050415 13.341953,1124.462891 
	C9.709572,1105.204102 6.254972,1085.911987 2.709360,1066.636597 
	C2.568368,1065.870117 1.981334,1065.185547 1.301073,1064.231445 
	C1.000000,1038.979126 1.000000,1013.958191 1.000000,988.468628 
	C2.359545,980.356018 3.740105,972.715698 5.072967,965.067078 
	C6.521243,956.756104 7.878918,948.428894 9.407681,940.133057 
	C9.595946,939.111389 10.594010,938.238953 11.548784,937.168640 
	C9.604202,949.922668 7.259839,962.793945 5.066927,975.690918 
	C1.735134,995.286011 1.872909,1015.067566 1.987843,1034.852783 
	C2.172421,1066.626831 7.675460,1097.580566 16.048126,1128.497070 
z"/>
<path fill="#ABF0FC" opacity="1.000000" stroke="none" 
	d="
M705.563232,3.984765 
	C707.897339,3.082342 710.653931,2.271102 713.705261,1.229931 
	C728.000000,1.000000 742.000000,1.000000 756.000000,1.499999 
	C739.328552,2.691981 722.657104,3.383965 705.563232,3.984765 
z"/>
<path fill="#C4F3FD" opacity="1.000000" stroke="none" 
	d="
M44.070595,1197.517578 
	C41.979465,1194.984375 39.451389,1192.309692 37.832489,1189.166748 
	C31.280270,1176.446411 24.783548,1163.669434 22.309633,1148.952881 
	C29.612665,1164.744507 36.832138,1180.952637 44.070595,1197.517578 
z"/>
<path fill="#C4F3FD" opacity="1.000000" stroke="none" 
	d="
M16.344103,920.742432 
	C16.877804,916.760010 17.254530,912.416321 18.607546,908.401672 
	C22.153202,897.880981 26.055660,887.477600 29.993378,877.094727 
	C30.669088,875.313110 32.218914,873.862915 33.680626,872.148438 
	C29.286791,884.727905 24.538923,897.404541 19.893213,910.118530 
	C18.646271,913.530945 17.710608,917.057129 16.344103,920.742432 
z"/>
<path fill="#C4F3FD" opacity="1.000000" stroke="none" 
	d="
M63.924065,1232.582031 
	C61.501774,1230.153687 58.527260,1227.676758 56.654491,1224.541504 
	C52.587982,1217.733643 49.036858,1210.614136 45.393833,1203.560547 
	C44.732353,1202.279907 44.636360,1200.706909 44.356308,1198.873779 
	C50.912678,1209.730713 57.392044,1220.982788 63.924065,1232.582031 
z"/>
<path fill="#C4F3FD" opacity="1.000000" stroke="none" 
	d="
M35.331139,869.711426 
	C35.753883,862.761047 38.990330,856.783203 43.797096,851.312744 
	C41.289009,857.348206 38.452076,863.440918 35.331139,869.711426 
z"/>
<path fill="#C4F3FD" opacity="1.000000" stroke="none" 
	d="
M44.531837,850.903381 
	C43.350658,844.810669 48.306156,841.507996 51.609268,837.143677 
	C49.563683,841.633423 47.186951,846.180664 44.531837,850.903381 
z"/>
<path fill="#C4F3FD" opacity="1.000000" stroke="none" 
	d="
M21.899429,1146.572998 
	C19.898045,1141.257812 17.925571,1135.563477 16.009506,1129.467529 
	C18.020056,1134.775146 19.974199,1140.484497 21.899429,1146.572998 
z"/>
<path fill="#C4F3FD" opacity="1.000000" stroke="none" 
	d="
M73.017120,1248.498291 
	C70.375587,1244.444092 67.701385,1240.041504 65.074226,1235.253418 
	C67.742332,1239.295166 70.363403,1243.722534 73.017120,1248.498291 
z"/>
<path fill="#C4F3FD" opacity="1.000000" stroke="none" 
	d="
M12.563408,935.060181 
	C13.273969,930.984802 14.237915,926.639648 15.527937,922.154846 
	C14.841605,926.273621 13.829199,930.531921 12.563408,935.060181 
z"/>
<path fill="#C4F3FD" opacity="1.000000" stroke="none" 
	d="
M52.324486,836.716797 
	C52.785236,835.318115 53.518875,833.764709 54.588333,832.139038 
	C54.148556,833.565186 53.372963,835.063599 52.324486,836.716797 
z"/>
<path fill="#C4F3FD" opacity="1.000000" stroke="none" 
	d="
M34.284500,871.848877 
	C34.189995,871.468872 34.355331,870.960022 34.735382,870.278076 
	C34.814842,870.643372 34.679588,871.181763 34.284500,871.848877 
z"/>
</svg>