<svg xmlns="http://www.w3.org/2000/svg" xmlns:xlink="http://www.w3.org/1999/xlink" width="569.241" height="435.446" viewBox="0 0 569.241 435.446"><defs><clipPath id="clip-path"><path id="Path_1284" data-name="Path 1284" d="M0,260.357H569.241V-175.089H0Z" transform="translate(0 175.089)" fill="none"></path></clipPath></defs><g id="Group_1253" data-name="Group 1253" transform="translate(0 -0.001)"><g id="Group_1252" data-name="Group 1252" transform="translate(0 0.001)" clip-path="url(#clip-path)"><g id="Group_1220" data-name="Group 1220" transform="translate(0.001 272.496)"><path id="Path_1252" data-name="Path 1252" d="M13.575,27.154a22.708,22.708,0,0,1,0-45.415A22.733,22.733,0,0,1,36.284,4.445,22.737,22.737,0,0,1,13.575,27.154m0-34.644A11.936,11.936,0,1,0,25.512,4.445,11.949,11.949,0,0,0,13.575-7.49" transform="translate(9.129 18.261)" fill="#512ca7"></path></g><g id="Group_1221" data-name="Group 1221" transform="translate(130.954 215.043)"><path id="Path_1253" data-name="Path 1253" d="M13.578,27.156A22.736,22.736,0,0,1-9.131,4.447a22.709,22.709,0,1,1,45.418,0A22.736,22.736,0,0,1,13.578,27.156m0-34.649a11.939,11.939,0,1,0,11.94,11.94,11.953,11.953,0,0,0-11.94-11.94" transform="translate(9.131 18.262)" fill="#512ca7"></path></g><g id="Group_1222" data-name="Group 1222" transform="translate(261.912 353.222)"><path id="Path_1254" data-name="Path 1254" d="M13.578,27.156A22.734,22.734,0,0,1-9.131,4.447a22.709,22.709,0,1,1,45.418,0A22.734,22.734,0,0,1,13.578,27.156m0-34.649a11.94,11.94,0,1,0,11.94,11.94,11.954,11.954,0,0,0-11.94-11.94" transform="translate(9.131 18.262)" fill="#512ca7"></path></g><g id="Group_1223" data-name="Group 1223" transform="translate(392.871 154.166)"><path id="Path_1255" data-name="Path 1255" d="M13.578,27.156A22.734,22.734,0,0,1-9.131,4.447a22.709,22.709,0,1,1,45.418,0A22.734,22.734,0,0,1,13.578,27.156m0-34.649a11.939,11.939,0,1,0,11.94,11.94,11.954,11.954,0,0,0-11.94-11.94" transform="translate(9.131 18.262)" fill="#512ca7"></path></g><g id="Group_1224" data-name="Group 1224" transform="translate(523.829 104.255)"><path id="Path_1256" data-name="Path 1256" d="M13.578,27.156A22.736,22.736,0,0,1-9.131,4.447a22.706,22.706,0,1,1,45.413,0,22.73,22.73,0,0,1-22.7,22.709m0-34.649A11.939,11.939,0,1,0,25.513,4.447,11.952,11.952,0,0,0,13.578-7.493" transform="translate(9.131 18.262)" fill="#512ca7"></path></g><g id="Group_1225" data-name="Group 1225" transform="translate(19.113 366.584)"><path id="Path_1257" data-name="Path 1257" d="M80.451,18.094a3.605,3.605,0,0,1-.629-.055L-51.136-5.035A3.593,3.593,0,0,1-54.048-9.2a3.577,3.577,0,0,1,4.161-2.912L81.073,10.966a3.591,3.591,0,0,1-.622,7.128" transform="translate(54.103 12.168)" fill="#00b8f1"></path></g><g id="Group_1226" data-name="Group 1226" transform="translate(150.072 155.959)"><path id="Path_1258" data-name="Path 1258" d="M2.145,144.028a3.594,3.594,0,0,1-3.129-5.347l130.958-233.7a3.591,3.591,0,0,1,4.889-1.378,3.594,3.594,0,0,1,1.378,4.887L5.281,142.193a3.6,3.6,0,0,1-3.136,1.835" transform="translate(1.442 96.858)" fill="#00b8f1"></path></g><g id="Group_1227" data-name="Group 1227" transform="translate(281.031 155.959)"><path id="Path_1259" data-name="Path 1259" d="M80.448,79.877a3.59,3.59,0,0,1-2.494-1.007L-53-47.54a3.593,3.593,0,0,1-.09-5.078,3.591,3.591,0,0,1,5.078-.092L82.942,73.7a3.591,3.591,0,0,1-2.494,6.175" transform="translate(54.101 53.717)" fill="#00b8f1"></path></g><g id="Group_1228" data-name="Group 1228" transform="translate(411.989 13.735)"><path id="Path_1260" data-name="Path 1260" d="M2.144,164.914a3.594,3.594,0,0,1-3.221-5.163L129.881-108.885a3.584,3.584,0,0,1,4.8-1.654,3.586,3.586,0,0,1,1.654,4.8L5.375,162.894a3.592,3.592,0,0,1-3.231,2.019" transform="translate(1.442 110.904)" fill="#00b8f1"></path></g><g id="Group_1229" data-name="Group 1229" transform="translate(34.977 241.119)"><path id="Path_1261" data-name="Path 1261" d="M2.146,30.323a3.59,3.59,0,0,1-1.44-6.877l99.229-43.53a3.58,3.58,0,0,1,4.728,1.843,3.586,3.586,0,0,1-1.845,4.728L3.586,30.017a3.512,3.512,0,0,1-1.44.306" transform="translate(1.443 20.392)" fill="#512ca7"></path></g><g id="Group_1230" data-name="Group 1230" transform="translate(161.982 246.729)"><path id="Path_1262" data-name="Path 1262" d="M66.207,71.886A3.584,3.584,0,0,1,63.6,70.764L-43.54-42.287a3.591,3.591,0,0,1,.137-5.076,3.6,3.6,0,0,1,5.076.137L68.81,65.825a3.59,3.59,0,0,1-2.6,6.061" transform="translate(44.524 48.343)" fill="#512ca7"></path></g><g id="Group_1231" data-name="Group 1231" transform="translate(290.546 187.752)"><path id="Path_1263" data-name="Path 1263" d="M2.145,106.01a3.593,3.593,0,0,1-3-5.563L111.07-69.674a3.593,3.593,0,0,1,4.972-1.027,3.591,3.591,0,0,1,1.03,4.972L5.149,104.391a3.59,3.59,0,0,1-3,1.619" transform="translate(1.442 71.292)" fill="#512ca7"></path></g><g id="Group_1232" data-name="Group 1232" transform="translate(428.161 128.746)"><path id="Path_1264" data-name="Path 1264" d="M2.147,27.239A3.591,3.591,0,0,1,.841,20.3L99.172-18.074a3.59,3.59,0,0,1,4.651,2.042,3.594,3.594,0,0,1-2.042,4.648L3.453,26.993a3.614,3.614,0,0,1-1.306.246" transform="translate(1.444 18.318)" fill="#512ca7"></path></g><g id="Group_1233" data-name="Group 1233" transform="translate(5.383 352.856)"><path id="Path_1265" data-name="Path 1265" d="M20.715,10.357A17.323,17.323,0,1,1,3.393-6.965,17.321,17.321,0,0,1,20.715,10.357" transform="translate(13.931 6.965)" fill="#00b8f1"></path></g><g id="Group_1234" data-name="Group 1234" transform="translate(267.298 142.228)"><path id="Path_1266" data-name="Path 1266" d="M20.715,10.357A17.323,17.323,0,1,1,3.393-6.965,17.325,17.325,0,0,1,20.715,10.357" transform="translate(13.931 6.965)" fill="#00b8f1"></path></g><g id="Group_1235" data-name="Group 1235" transform="translate(398.255 268.64)"><path id="Path_1267" data-name="Path 1267" d="M20.715,10.357A17.323,17.323,0,1,1,3.393-6.965,17.322,17.322,0,0,1,20.715,10.357" transform="translate(13.931 6.965)" fill="#00b8f1"></path></g><g id="Group_1236" data-name="Group 1236" transform="translate(529.212 0.001)"><path id="Path_1268" data-name="Path 1268" d="M20.715,10.357A17.323,17.323,0,1,1,3.393-6.965,17.322,17.322,0,0,1,20.715,10.357" transform="translate(13.931 6.965)" fill="#00b8f1"></path></g><g id="Group_1237" data-name="Group 1237" transform="translate(136.34 375.931)"><path id="Path_1269" data-name="Path 1269" d="M20.715,10.357A17.323,17.323,0,1,0,3.393,27.679,17.321,17.321,0,0,0,20.715,10.357" transform="translate(13.931 6.965)" fill="#00b8f1"></path></g><g id="Group_1238" data-name="Group 1238" transform="translate(-0.001 428.97)"><path id="Path_1270" data-name="Path 1270" d="M15.487,3.872H-7.174A3.24,3.24,0,0,1-10.415.634,3.24,3.24,0,0,1-7.174-2.6H15.487a3.238,3.238,0,0,1,0,6.476" transform="translate(10.415 2.604)" fill="#d1e0ed"></path></g><g id="Group_1239" data-name="Group 1239" transform="translate(318.332 428.97)"><path id="Path_1271" data-name="Path 1271" d="M15.487,3.872H-7.174A3.24,3.24,0,0,1-10.415.634,3.24,3.24,0,0,1-7.174-2.6H15.487a3.238,3.238,0,0,1,0,6.476" transform="translate(10.415 2.604)" fill="#d1e0ed"></path></g><g id="Group_1240" data-name="Group 1240" transform="translate(159.165 428.97)"><path id="Path_1272" data-name="Path 1272" d="M15.487,3.872H-7.174A3.24,3.24,0,0,1-10.415.634,3.24,3.24,0,0,1-7.174-2.6H15.487a3.238,3.238,0,0,1,0,6.476" transform="translate(10.415 2.604)" fill="#d1e0ed"></path></g><g id="Group_1241" data-name="Group 1241" transform="translate(477.498 428.97)"><path id="Path_1273" data-name="Path 1273" d="M15.487,3.872H-7.174A3.24,3.24,0,0,1-10.415.634,3.24,3.24,0,0,1-7.174-2.6H15.487a3.238,3.238,0,0,1,0,6.476" transform="translate(10.415 2.604)" fill="#d1e0ed"></path></g><g id="Group_1242" data-name="Group 1242" transform="translate(79.582 428.97)"><path id="Path_1274" data-name="Path 1274" d="M15.487,3.872H-7.174A3.24,3.24,0,0,1-10.415.634,3.24,3.24,0,0,1-7.174-2.6H15.487a3.238,3.238,0,0,1,0,6.476" transform="translate(10.415 2.604)" fill="#d1e0ed"></path></g><g id="Group_1243" data-name="Group 1243" transform="translate(397.915 428.97)"><path id="Path_1275" data-name="Path 1275" d="M15.487,3.872H-7.174A3.24,3.24,0,0,1-10.415.634,3.24,3.24,0,0,1-7.174-2.6H15.487a3.238,3.238,0,0,1,0,6.476" transform="translate(10.415 2.604)" fill="#d1e0ed"></path></g><g id="Group_1244" data-name="Group 1244" transform="translate(238.749 428.97)"><path id="Path_1276" data-name="Path 1276" d="M15.487,3.872H-7.174A3.24,3.24,0,0,1-10.415.634,3.24,3.24,0,0,1-7.174-2.6H15.487a3.238,3.238,0,0,1,0,6.476" transform="translate(10.415 2.604)" fill="#d1e0ed"></path></g><g id="Group_1245" data-name="Group 1245" transform="translate(39.791 428.97)"><path id="Path_1277" data-name="Path 1277" d="M15.487,3.872H-7.174A3.24,3.24,0,0,1-10.415.634,3.24,3.24,0,0,1-7.174-2.6H15.487a3.238,3.238,0,0,1,0,6.476" transform="translate(10.415 2.604)" fill="#d1e0ed"></path></g><g id="Group_1246" data-name="Group 1246" transform="translate(358.123 428.97)"><path id="Path_1278" data-name="Path 1278" d="M15.487,3.872H-7.174A3.24,3.24,0,0,1-10.415.634,3.24,3.24,0,0,1-7.174-2.6H15.487a3.238,3.238,0,0,1,0,6.476" transform="translate(10.415 2.604)" fill="#d1e0ed"></path></g><g id="Group_1247" data-name="Group 1247" transform="translate(198.957 428.97)"><path id="Path_1279" data-name="Path 1279" d="M15.487,3.872H-7.174A3.24,3.24,0,0,1-10.415.634,3.24,3.24,0,0,1-7.174-2.6H15.487a3.238,3.238,0,0,1,0,6.476" transform="translate(10.415 2.604)" fill="#d1e0ed"></path></g><g id="Group_1248" data-name="Group 1248" transform="translate(517.29 428.97)"><path id="Path_1280" data-name="Path 1280" d="M15.487,3.872H-7.174A3.24,3.24,0,0,1-10.415.634,3.24,3.24,0,0,1-7.174-2.6H15.487a3.238,3.238,0,0,1,0,6.476" transform="translate(10.415 2.604)" fill="#d1e0ed"></path></g><g id="Group_1249" data-name="Group 1249" transform="translate(119.374 428.97)"><path id="Path_1281" data-name="Path 1281" d="M15.487,3.872H-7.174A3.24,3.24,0,0,1-10.415.634,3.24,3.24,0,0,1-7.174-2.6H15.487a3.238,3.238,0,0,1,0,6.476" transform="translate(10.415 2.604)" fill="#d1e0ed"></path></g><g id="Group_1250" data-name="Group 1250" transform="translate(437.707 428.97)"><path id="Path_1282" data-name="Path 1282" d="M15.487,3.872H-7.174A3.24,3.24,0,0,1-10.415.634,3.24,3.24,0,0,1-7.174-2.6H15.487a3.238,3.238,0,0,1,0,6.476" transform="translate(10.415 2.604)" fill="#d1e0ed"></path></g><g id="Group_1251" data-name="Group 1251" transform="translate(278.54 428.97)"><path id="Path_1283" data-name="Path 1283" d="M15.487,3.872H-7.174A3.24,3.24,0,0,1-10.415.634,3.24,3.24,0,0,1-7.174-2.6H15.487a3.238,3.238,0,0,1,0,6.476" transform="translate(10.415 2.604)" fill="#d1e0ed"></path></g></g></g></svg>