<svg xmlns="http://www.w3.org/2000/svg" width="2992" height="2992" viewBox="0 0 2992 2992"><defs><mask id="gjj6b" width="2.01" height="2.01" x="-1" y="-1"><path fill="#fff" d="M1308.4 1301.4h375.2v375.2h-375.2z"/><path d="M1495.881 1303.555c102.428 0 185.463 83.025 185.463 185.443s-83.035 185.445-185.463 185.445-185.463-83.027-185.463-185.445c0-102.418 83.035-185.443 185.463-185.443z"/></mask><filter id="gjj6a" width="412" height="419" x="1290" y="1283" filterUnits="userSpaceOnUse"><feOffset dy="7" in="SourceGraphic" result="FeOffset1023Out"/><feGaussianBlur in="FeOffset1023Out" result="FeGaussianBlur1024Out" stdDeviation="3.3600000000000003 3.3600000000000003"/></filter><clipPath id="gjj6c"><path fill="#fff" d="M1495.881 1303.555c102.428 0 185.463 83.025 185.463 185.443s-83.035 185.445-185.463 185.445-185.463-83.027-185.463-185.445c0-102.418 83.035-185.443 185.463-185.443z"/></clipPath></defs><g><g><g filter="url(#gjj6a)"><path fill="none" stroke="#000" stroke-opacity=".23" stroke-width="3.2" d="M1495.881 1303.555c102.428 0 185.463 83.025 185.463 185.443s-83.035 185.445-185.463 185.445-185.463-83.027-185.463-185.445c0-102.418 83.035-185.443 185.463-185.443z" mask="url(&quot;#gjj6b&quot;)"/><path fill-opacity=".23" d="M1495.881 1303.555c102.428 0 185.463 83.025 185.463 185.443s-83.035 185.445-185.463 185.445-185.463-83.027-185.463-185.445c0-102.418 83.035-185.443 185.463-185.443z"/></g><path fill="none" stroke="#ff1b6a" stroke-miterlimit="20" stroke-width="130" d="M1495.881 1303.555c102.428 0 185.463 83.025 185.463 185.443s-83.035 185.445-185.463 185.445-185.463-83.027-185.463-185.445c0-102.418 83.035-185.443 185.463-185.443z" clip-path="url(&quot;#gjj6c&quot;)"/></g></g></svg>