<?xml version="1.0" standalone="no"?>
<!DOCTYPE svg PUBLIC "-//W3C//DTD SVG 20010904//EN"
 "http://www.w3.org/TR/2001/REC-SVG-20010904/DTD/svg10.dtd">
<svg version="1.0" xmlns="http://www.w3.org/2000/svg"
 width="310.000000pt" height="310.000000pt" viewBox="0 0 310.000000 310.000000"
 preserveAspectRatio="xMidYMid meet">
<metadata>
Created by potrace 1.14, written by Peter Selinger 2001-2017
</metadata>
<g transform="translate(0.000000,310.000000) scale(0.100000,-0.100000)"
fill="#000000" stroke="none">
<path d="M924 2740 c-51 -20 -82 -126 -61 -210 29 -116 111 -135 153 -35 46
111 -15 274 -92 245z"/>
<path d="M858 2362 c-2 -4 -4 -358 -3 -787 l1 -780 82 -2 82 -2 1 32 c1 18 1
59 0 92 l0 60 27 -54 c91 -183 261 -217 389 -78 126 136 188 414 160 715 -37
398 -282 628 -474 443 -27 -25 -57 -64 -68 -86 l-20 -40 -3 248 -2 247 -29
-21 c-37 -27 -75 -27 -111 0 -16 11 -31 17 -32 13z m460 -566 c84 -45 136
-188 136 -376 0 -156 -25 -257 -84 -338 -33 -46 -56 -61 -97 -63 -51 -3 -62 1
-98 33 -119 104 -156 401 -75 610 21 55 80 130 110 141 28 10 81 7 108 -7z"/>
<path d="M2140 2052 c-77 -27 -96 -217 -28 -289 75 -80 163 69 122 207 -18 61
-57 95 -94 82z"/>
<path d="M1985 1989 c-28 -34 -60 -92 -80 -148 -13 -34 -14 -30 -14 67 l-1
102 -79 0 c-54 0 -80 -4 -83 -12 -4 -11 -3 -1200 1 -1220 1 -9 161 -6 166 3 3
3 5 168 5 366 1 379 7 438 50 522 10 21 33 50 51 65 24 21 30 31 24 49 -11 36
-15 174 -5 207 11 39 -1 38 -35 -1z"/>
</g>
</svg>
